<svg width="56" height="46" viewBox="0 0 56 46" fill="none" xmlns="http://www.w3.org/2000/svg">
<g clip-path="url(#clip0_540_808)">
<path d="M15.0003 16.5C15.0003 16.3674 15.053 16.2402 15.1468 16.1464C15.2405 16.0527 15.3677 16 15.5003 16H17.0003C17.1118 16 17.2202 16.0374 17.308 16.106C17.3959 16.1747 17.4583 16.2708 17.4853 16.379L17.8903 18H29.5003C29.5737 18.0001 29.6462 18.0163 29.7127 18.0476C29.7791 18.0788 29.8378 18.1243 29.8847 18.1808C29.9316 18.2373 29.9654 18.3035 29.9838 18.3745C30.0023 18.4456 30.0048 18.5198 29.9913 18.592L28.4913 26.592C28.4699 26.7066 28.409 26.8101 28.3194 26.8846C28.2297 26.9591 28.1169 26.9999 28.0003 27H19.0003C18.8837 26.9999 18.7709 26.9591 18.6812 26.8846C18.5916 26.8101 18.5308 26.7066 18.5093 26.592L17.0103 18.607L16.6103 17H15.5003C15.3677 17 15.2405 16.9473 15.1468 16.8536C15.053 16.7598 15.0003 16.6326 15.0003 16.5ZM18.1023 19L19.4153 26H27.5853L28.8983 19H18.1023ZM20.0003 27C19.4699 27 18.9612 27.2107 18.5861 27.5858C18.211 27.9609 18.0003 28.4696 18.0003 29C18.0003 29.5304 18.211 30.0391 18.5861 30.4142C18.9612 30.7893 19.4699 31 20.0003 31C20.5307 31 21.0394 30.7893 21.4145 30.4142C21.7896 30.0391 22.0003 29.5304 22.0003 29C22.0003 28.4696 21.7896 27.9609 21.4145 27.5858C21.0394 27.2107 20.5307 27 20.0003 27ZM27.0003 27C26.4699 27 25.9612 27.2107 25.5861 27.5858C25.211 27.9609 25.0003 28.4696 25.0003 29C25.0003 29.5304 25.211 30.0391 25.5861 30.4142C25.9612 30.7893 26.4699 31 27.0003 31C27.5307 31 28.0394 30.7893 28.4145 30.4142C28.7896 30.0391 29.0003 29.5304 29.0003 29C29.0003 28.4696 28.7896 27.9609 28.4145 27.5858C28.0394 27.2107 27.5307 27 27.0003 27ZM20.0003 28C20.2655 28 20.5199 28.1054 20.7074 28.2929C20.8949 28.4804 21.0003 28.7348 21.0003 29C21.0003 29.2652 20.8949 29.5196 20.7074 29.7071C20.5199 29.8946 20.2655 30 20.0003 30C19.7351 30 19.4807 29.8946 19.2932 29.7071C19.1057 29.5196 19.0003 29.2652 19.0003 29C19.0003 28.7348 19.1057 28.4804 19.2932 28.2929C19.4807 28.1054 19.7351 28 20.0003 28ZM27.0003 28C27.2655 28 27.5199 28.1054 27.7074 28.2929C27.8949 28.4804 28.0003 28.7348 28.0003 29C28.0003 29.2652 27.8949 29.5196 27.7074 29.7071C27.5199 29.8946 27.2655 30 27.0003 30C26.7351 30 26.4807 29.8946 26.2932 29.7071C26.1057 29.5196 26.0003 29.2652 26.0003 29C26.0003 28.7348 26.1057 28.4804 26.2932 28.2929C26.4807 28.1054 26.7351 28 27.0003 28Z" fill="#23A6F0"/>
</g>
<path d="M36.5631 18.612H39.6111V27H38.2671V19.872H36.5631V18.612Z" fill="#23A6F0"/>
<defs>
<clipPath id="clip0_540_808">
<rect width="16" height="16" fill="white" transform="translate(15.0003 15)"/>
</clipPath>
</defs>
</svg>
