<svg width="16" height="16" viewBox="0 0 16 16" fill="none" xmlns="http://www.w3.org/2000/svg">
<g clip-path="url(#clip0_540_703)">
<path d="M3.65447 1.32829C3.59544 1.25236 3.52092 1.18985 3.43587 1.14492C3.35082 1.09999 3.25719 1.07368 3.16119 1.06772C3.06519 1.06176 2.96902 1.07629 2.87907 1.11036C2.78912 1.14442 2.70744 1.19724 2.63947 1.26529L1.60547 2.30029C1.12247 2.78429 0.944471 3.4693 1.15547 4.0703C2.03121 6.55788 3.45577 8.81639 5.32347 10.6783C7.1854 12.546 9.4439 13.9705 11.9315 14.8463C12.5325 15.0573 13.2175 14.8793 13.7015 14.3963L14.7355 13.3623C14.8035 13.2943 14.8563 13.2127 14.8904 13.1227C14.9245 13.0327 14.939 12.9366 14.933 12.8406C14.9271 12.7446 14.9008 12.6509 14.8558 12.5659C14.8109 12.4808 14.7484 12.4063 14.6725 12.3473L12.3655 10.5533C12.2843 10.4904 12.19 10.4467 12.0895 10.4256C11.989 10.4044 11.8851 10.4064 11.7855 10.4313L9.59547 10.9783C9.30315 11.0514 8.99689 11.0475 8.70652 10.967C8.41614 10.8866 8.15154 10.7324 7.93847 10.5193L5.48247 8.06229C5.26924 7.84933 5.1148 7.58478 5.03418 7.29439C4.95357 7.00401 4.94954 6.6977 5.02247 6.4053L5.57047 4.2153C5.59538 4.11569 5.59734 4.01173 5.57621 3.91126C5.55507 3.81079 5.51139 3.71642 5.44847 3.63529L3.65447 1.32829ZM1.88447 0.511295C2.05947 0.336244 2.2697 0.200425 2.50121 0.112856C2.73272 0.0252871 2.98021 -0.0120282 3.22725 0.00338804C3.47429 0.0188043 3.71522 0.0865995 3.93405 0.202272C4.15288 0.317944 4.3446 0.478846 4.49647 0.674295L6.29047 2.98029C6.61947 3.4033 6.73547 3.9543 6.60547 4.4743L6.05847 6.6643C6.03019 6.77772 6.03172 6.89654 6.06291 7.0092C6.0941 7.12187 6.15388 7.22456 6.23647 7.3073L8.69347 9.76429C8.77631 9.84705 8.87916 9.90694 8.99202 9.93813C9.10488 9.96933 9.22389 9.97076 9.33747 9.9423L11.5265 9.3953C11.7831 9.33113 12.0509 9.32615 12.3098 9.38072C12.5686 9.43529 12.8116 9.54799 13.0205 9.71029L15.3265 11.5043C16.1555 12.1493 16.2315 13.3743 15.4895 14.1153L14.4555 15.1493C13.7155 15.8893 12.6095 16.2143 11.5785 15.8513C8.93965 14.9228 6.54374 13.4121 4.56847 11.4313C2.58776 9.45631 1.07708 7.06075 0.148471 4.4223C-0.213529 3.3923 0.111471 2.2853 0.851471 1.54529L1.88547 0.511295H1.88447Z" fill="white"/>
</g>
<defs>
<clipPath id="clip0_540_703">
<rect width="16.0005" height="16.0004" fill="white"/>
</clipPath>
</defs>
</svg>
