<svg width="46" height="46" viewBox="0 0 46 46" fill="none" xmlns="http://www.w3.org/2000/svg">
<g clip-path="url(#clip0_540_803)">
<path d="M26.7426 25.3441C27.7109 24.0228 28.1446 22.3846 27.9569 20.7572C27.7692 19.1299 26.974 17.6334 25.7304 16.5672C24.4867 15.501 22.8863 14.9437 21.2494 15.0068C19.6125 15.0699 18.0598 15.7487 16.9019 16.9074C15.7439 18.0662 15.0662 19.6194 15.0043 21.2563C14.9424 22.8933 15.5009 24.4933 16.568 25.7361C17.6351 26.979 19.1321 27.7732 20.7596 27.9597C22.3871 28.1462 24.025 27.7113 25.3456 26.7421H25.3446C25.3746 26.7821 25.4066 26.8201 25.4426 26.8571L29.2926 30.7071C29.4801 30.8947 29.7345 31.0002 29.9997 31.0003C30.265 31.0004 30.5195 30.8951 30.7071 30.7076C30.8947 30.5201 31.0002 30.2657 31.0003 30.0005C31.0004 29.7352 30.8951 29.4807 30.7076 29.2931L26.8576 25.4431C26.8218 25.4069 26.7834 25.3735 26.7426 25.3431V25.3441ZM27.0006 21.5001C27.0006 22.2224 26.8583 22.9376 26.5819 23.6049C26.3055 24.2722 25.9004 24.8785 25.3897 25.3892C24.879 25.8999 24.2726 26.305 23.6054 26.5814C22.9381 26.8578 22.2229 27.0001 21.5006 27.0001C20.7783 27.0001 20.0631 26.8578 19.3958 26.5814C18.7285 26.305 18.1222 25.8999 17.6115 25.3892C17.1008 24.8785 16.6957 24.2722 16.4193 23.6049C16.1429 22.9376 16.0006 22.2224 16.0006 21.5001C16.0006 20.0414 16.5801 18.6425 17.6115 17.611C18.643 16.5796 20.0419 16.0001 21.5006 16.0001C22.9593 16.0001 24.3582 16.5796 25.3897 17.611C26.4211 18.6425 27.0006 20.0414 27.0006 21.5001Z" fill="#23A6F0"/>
</g>
<defs>
<clipPath id="clip0_540_803">
<rect width="16.0006" height="16.0003" fill="white" transform="translate(14.9997 15)"/>
</clipPath>
</defs>
</svg>
