<svg width="132" height="22" viewBox="0 0 132 22" fill="none" xmlns="http://www.w3.org/2000/svg">
<g clip-path="url(#clip0_540_1029)">
<path d="M21.0967 8.41243C21.039 8.24262 20.9329 8.09341 20.7914 7.98322C20.65 7.87303 20.4793 7.80669 20.3005 7.79238L15.0714 7.37688L12.8086 2.36786C12.7365 2.20653 12.6193 2.0695 12.4711 1.97332C12.3229 1.87714 12.15 1.8259 11.9733 1.82581C11.7966 1.82571 11.6236 1.87675 11.4753 1.97277C11.327 2.0688 11.2096 2.20569 11.1374 2.36694L8.87455 7.37688L3.6454 7.79238C3.46971 7.8063 3.30175 7.87054 3.16161 7.97742C3.02147 8.08429 2.91509 8.22928 2.8552 8.39503C2.7953 8.56079 2.78443 8.74028 2.82388 8.91205C2.86332 9.08383 2.95142 9.24059 3.07763 9.36361L6.94194 13.1307L5.57526 19.0487C5.53377 19.2278 5.54707 19.4153 5.61344 19.5868C5.67981 19.7583 5.79619 19.9058 5.94748 20.0103C6.09877 20.1149 6.27797 20.1715 6.46185 20.1729C6.64572 20.1743 6.82577 20.1204 6.97863 20.0182L11.973 16.6886L16.9673 20.0182C17.1235 20.1219 17.3078 20.1753 17.4953 20.1712C17.6828 20.1671 17.8645 20.1057 18.0161 19.9952C18.1676 19.8847 18.2817 19.7305 18.3429 19.5532C18.4042 19.376 18.4097 19.1842 18.3588 19.0037L16.6811 13.1334L20.8417 9.38929C21.1141 9.14347 21.2141 8.76007 21.0967 8.41243Z" fill="#F3CD03"/>
<path d="M48.1116 8.41243C48.054 8.24262 47.9479 8.09341 47.8064 7.98322C47.6649 7.87303 47.4942 7.80669 47.3155 7.79238L42.0863 7.37688L39.8235 2.36786C39.7514 2.20653 39.6342 2.0695 39.486 1.97332C39.3378 1.87714 39.1649 1.8259 38.9882 1.82581C38.8115 1.82571 38.6386 1.87675 38.4902 1.97277C38.3419 2.0688 38.2245 2.20569 38.1523 2.36694L35.8895 7.37688L30.6603 7.79238C30.4846 7.8063 30.3167 7.87054 30.1765 7.97742C30.0364 8.08429 29.93 8.22928 29.8701 8.39503C29.8102 8.56079 29.7994 8.74028 29.8388 8.91205C29.8783 9.08383 29.9664 9.24059 30.0926 9.36361L33.9569 13.1307L32.5902 19.0487C32.5487 19.2278 32.562 19.4153 32.6284 19.5868C32.6947 19.7583 32.8111 19.9058 32.9624 20.0103C33.1137 20.1149 33.2929 20.1715 33.4768 20.1729C33.6607 20.1743 33.8407 20.1204 33.9936 20.0182L38.9879 16.6886L43.9822 20.0182C44.1385 20.1219 44.3227 20.1753 44.5102 20.1712C44.6977 20.1671 44.8795 20.1057 45.031 19.9952C45.1825 19.8847 45.2966 19.7305 45.3579 19.5532C45.4191 19.376 45.4247 19.1842 45.3737 19.0037L43.6961 13.1334L47.8566 9.38929C48.1291 9.14347 48.229 8.76007 48.1116 8.41243Z" fill="#F3CD03"/>
<path d="M75.1227 8.41243C75.065 8.24262 74.9589 8.09341 74.8174 7.98322C74.6759 7.87303 74.5053 7.80669 74.3265 7.79238L69.0973 7.37688L66.8345 2.36786C66.7625 2.20653 66.6453 2.0695 66.497 1.97332C66.3488 1.87714 66.1759 1.8259 65.9992 1.82581C65.8225 1.82571 65.6496 1.87675 65.5013 1.97277C65.3529 2.0688 65.2356 2.20569 65.1633 2.36694L62.9005 7.37688L57.6714 7.79238C57.4957 7.8063 57.3277 7.87054 57.1876 7.97742C57.0474 8.08429 56.9411 8.22928 56.8812 8.39503C56.8213 8.56079 56.8104 8.74028 56.8498 8.91205C56.8893 9.08383 56.9774 9.24059 57.1036 9.36361L60.9679 13.1307L59.6012 19.0487C59.5597 19.2278 59.573 19.4153 59.6394 19.5868C59.7058 19.7583 59.8222 19.9058 59.9734 20.0103C60.1247 20.1149 60.3039 20.1715 60.4878 20.1729C60.6717 20.1743 60.8517 20.1204 61.0046 20.0182L65.9989 16.6886L70.9933 20.0182C71.1495 20.1219 71.3338 20.1753 71.5213 20.1712C71.7088 20.1671 71.8905 20.1057 72.042 19.9952C72.1936 19.8847 72.3076 19.7305 72.3689 19.5532C72.4302 19.376 72.4357 19.1842 72.3847 19.0037L70.7071 13.1334L74.8677 9.38929C75.1401 9.14347 75.2401 8.76007 75.1227 8.41243Z" fill="#F3CD03"/>
<path d="M102.137 8.41243C102.079 8.24262 101.973 8.09341 101.831 7.98322C101.69 7.87303 101.519 7.80669 101.34 7.79238L96.1113 7.37688L93.8485 2.36786C93.7764 2.20653 93.6592 2.0695 93.511 1.97332C93.3628 1.87714 93.1899 1.8259 93.0132 1.82581C92.8365 1.82571 92.6636 1.87675 92.5152 1.97277C92.3669 2.0688 92.2495 2.20569 92.1773 2.36694L89.9145 7.37688L84.6853 7.79238C84.5096 7.8063 84.3417 7.87054 84.2015 7.97742C84.0614 8.08429 83.955 8.22928 83.8951 8.39503C83.8352 8.56079 83.8244 8.74028 83.8638 8.91205C83.9033 9.08383 83.9914 9.24059 84.1176 9.36361L87.9819 13.1307L86.6152 19.0487C86.5737 19.2278 86.587 19.4153 86.6534 19.5868C86.7197 19.7583 86.8361 19.9058 86.9874 20.0103C87.1387 20.1149 87.3179 20.1715 87.5018 20.1729C87.6857 20.1743 87.8657 20.1204 88.0186 20.0182L93.0129 16.6886L98.0072 20.0182C98.1635 20.1219 98.3477 20.1753 98.5352 20.1712C98.7227 20.1671 98.9045 20.1057 99.056 19.9952C99.2075 19.8847 99.3216 19.7305 99.3829 19.5532C99.4441 19.376 99.4497 19.1842 99.3987 19.0037L97.7211 13.1334L101.882 9.38929C102.154 9.14347 102.254 8.76007 102.137 8.41243Z" fill="#F3CD03"/>
<path d="M114.998 13.1308L113.631 19.0488C113.589 19.228 113.601 19.4158 113.667 19.5877C113.734 19.7596 113.85 19.9075 114.001 20.0122C114.153 20.1169 114.332 20.1735 114.516 20.1746C114.701 20.1757 114.881 20.1212 115.033 20.0183L120.028 16.6888L125.022 20.0183C125.178 20.1221 125.363 20.1755 125.55 20.1714C125.738 20.1673 125.919 20.1058 126.071 19.9953C126.222 19.8849 126.337 19.7306 126.398 19.5534C126.459 19.3761 126.465 19.1844 126.414 19.0039L124.736 13.1336L128.897 9.38944C129.03 9.26946 129.125 9.11304 129.17 8.93955C129.216 8.76605 129.209 8.58308 129.151 8.41327C129.094 8.24345 128.988 8.09424 128.846 7.98408C128.705 7.87392 128.534 7.80764 128.355 7.79345L123.126 7.37703L120.863 2.36801C120.791 2.20672 120.674 2.06976 120.526 1.97366C120.377 1.87755 120.205 1.82642 120.028 1.82642C119.851 1.82642 119.678 1.87755 119.53 1.97366C119.382 2.06976 119.264 2.20672 119.192 2.36801L116.929 7.37703L111.7 7.79254C111.525 7.80645 111.357 7.87069 111.216 7.97757C111.076 8.08445 110.97 8.22943 110.91 8.39518C110.85 8.56094 110.839 8.74044 110.879 8.91221C110.918 9.08398 111.006 9.24074 111.132 9.36376L114.998 13.1308ZM117.615 9.16288C117.778 9.14998 117.936 9.09328 118.07 8.99871C118.204 8.90414 118.31 8.77519 118.378 8.62538L120.028 4.97387L121.678 8.62538C121.745 8.77519 121.852 8.90414 121.986 8.99871C122.12 9.09328 122.277 9.14998 122.441 9.16288L126.084 9.45181L123.084 12.1521C122.824 12.387 122.72 12.7484 122.815 13.0859L123.965 17.108L120.538 14.8231C120.387 14.7222 120.21 14.6683 120.029 14.6683C119.848 14.6683 119.671 14.7222 119.521 14.8231L115.94 17.2107L116.903 13.0409C116.938 12.8876 116.933 12.7277 116.889 12.5767C116.845 12.4257 116.762 12.2887 116.65 12.1787L113.863 9.4619L117.615 9.16288Z" fill="#F3CD03"/>
</g>
<defs>
<clipPath id="clip0_540_1029">
<rect width="130.068" height="22.0136" fill="white" transform="translate(0.965942 -0.00683594)"/>
</clipPath>
</defs>
</svg>
