<svg width="17" height="16" viewBox="0 0 17 16" fill="none" xmlns="http://www.w3.org/2000/svg">
<g clip-path="url(#clip0_540_725)">
<path d="M5.026 14.0007C11.064 14.0007 14.367 8.99769 14.367 4.66669C14.367 4.52669 14.367 4.38469 14.361 4.24469C15.0041 3.77918 15.5591 3.20284 16 2.54269C15.3993 2.80754 14.7628 2.9821 14.111 3.06069C14.7975 2.65033 15.3117 2.00466 15.558 1.24369C14.913 1.62582 14.207 1.89407 13.471 2.03669C12.9762 1.50972 12.3214 1.16061 11.6081 1.04345C10.8948 0.92629 10.1627 1.04761 9.52534 1.38863C8.88796 1.72965 8.38081 2.27132 8.08245 2.92975C7.78409 3.58818 7.71118 4.32663 7.875 5.03069C6.56974 4.96524 5.29282 4.62616 4.12704 4.03544C2.96127 3.44471 1.93268 2.61554 1.108 1.60169C0.68934 2.32478 0.561574 3.18009 0.750646 3.99396C0.939718 4.80782 1.43145 5.51922 2.126 5.98369C1.60554 5.96601 1.09652 5.82625 0.64 5.57569V5.62069C0.640897 6.37817 0.903307 7.11211 1.38287 7.69845C1.86244 8.28479 2.52975 8.68757 3.272 8.83869C2.99026 8.91631 2.69923 8.955 2.407 8.95369C2.20098 8.95432 1.99538 8.93523 1.793 8.89669C2.00279 9.54875 2.41127 10.1189 2.96125 10.5272C3.51122 10.9355 4.17513 11.1615 4.86 11.1737C3.69656 12.0875 2.2594 12.5831 0.78 12.5807C0.519321 12.5818 0.258823 12.5668 0 12.5357C1.50151 13.493 3.2453 14.0012 5.026 14.0007Z" fill="white"/>
</g>
<defs>
<clipPath id="clip0_540_725">
<rect width="16" height="16" fill="white" transform="translate(0.5)"/>
</clipPath>
</defs>
</svg>
