<svg width="150" height="142" viewBox="0 0 150 142" fill="none" xmlns="http://www.w3.org/2000/svg">
<g clip-path="url(#clip0_541_373)">
<path d="M132.69 54.5546C127.995 54.5546 123.863 56.5154 120.827 59.5831C109.652 51.7715 94.5953 46.743 77.9111 46.2054L86.5819 6.73634L114.191 12.9983C114.191 19.8294 119.7 25.3956 126.461 25.3956C133.348 25.3956 138.888 19.6713 138.888 12.8401C138.888 6.00894 133.379 0.284668 126.461 0.284668C121.641 0.284668 117.477 3.22587 115.411 7.24235L84.9228 0.411171C83.389 3.54052e-05 81.8865 1.10694 81.4796 2.65661L71.9636 46.1737C55.4046 46.8695 40.5046 51.898 29.2983 59.7096C26.2619 56.5154 21.9735 54.5546 17.2781 54.5546C-0.126108 54.5546 -5.82317 78.1475 10.1098 86.212C9.54637 88.7105 9.29595 91.3671 9.29595 94.0236C9.29595 120.526 38.8455 142 75.1252 142C111.561 142 141.111 120.526 141.111 94.0236C141.111 91.3671 140.829 88.584 140.14 86.0855C155.76 77.9893 150.001 54.5546 132.69 54.5546ZM35.3709 87.8882C35.3709 80.9305 40.8802 75.3328 47.7981 75.3328C54.5594 75.3328 60.0686 80.8989 60.0686 87.8882C60.0686 94.7194 54.5594 100.286 47.7981 100.286C40.9115 100.317 35.3709 94.7194 35.3709 87.8882ZM102.452 117.458C91.0581 128.97 58.9104 128.97 47.5163 117.458C46.2642 116.351 46.2642 114.391 47.5163 113.126C48.6119 112.019 50.5527 112.019 51.6483 113.126C60.3504 122.139 89.2113 122.297 98.289 113.126C99.3846 112.019 101.325 112.019 102.421 113.126C103.704 114.391 103.704 116.351 102.452 117.458ZM102.202 100.317C95.4405 100.317 89.9312 94.751 89.9312 87.9198C89.9312 80.9622 95.4405 75.3644 102.202 75.3644C109.088 75.3644 114.629 80.9305 114.629 87.9198C114.598 94.7194 109.088 100.317 102.202 100.317Z" fill="#737373"/>
</g>
<defs>
<clipPath id="clip0_541_373">
<rect width="149" height="142" fill="white" transform="translate(0.5)"/>
</clipPath>
</defs>
</svg>
