<svg width="150" height="60" viewBox="0 0 150 60" fill="none" xmlns="http://www.w3.org/2000/svg">
<g clip-path="url(#clip0_541_367)">
<path d="M38.9157 4.70455L28.8349 6.79545L28.7883 39.1591C28.7883 45.1364 33.398 49 39.521 49C42.9201 49 45.4111 48.3864 46.7847 47.6591V39.9773C45.4577 40.5 38.939 42.3636 38.939 36.4091V22.0455H46.7847V13.4545H38.939L38.9157 4.70455ZM59.6593 16.4318L59.0307 13.4545H50.0907V48.2727H60.4043V24.8409C62.8488 21.7045 66.9696 22.3182 68.2966 22.7273V13.4545C66.8997 12.9773 62.0805 12.0909 59.6593 16.4318ZM81.1479 0L70.7644 2.15909V10.3864L81.1479 8.22727V0ZM10.9549 23.7045C10.9549 22.1364 12.3052 21.5227 14.4704 21.5C17.6133 21.5 21.6177 22.4318 24.7607 24.0909V14.5909C21.3383 13.2727 17.916 12.75 14.4937 12.75C6.1124 12.75 0.524902 17.0227 0.524902 24.1591C0.524902 35.3409 16.2397 33.5227 16.2397 38.3409C16.2397 40.2046 14.5868 40.8182 12.2819 40.8182C8.85959 40.8182 4.43615 39.4318 0.967246 37.5909V46.6818C4.80865 48.2955 8.69662 48.9773 12.2587 48.9773C20.8494 48.9773 26.7629 45.3864 26.7629 38.1136C26.7629 26.0909 10.9549 28.25 10.9549 23.7045ZM149.502 31.2727C149.502 20.9318 144.38 12.7727 134.555 12.7727C124.73 12.7727 118.747 20.9318 118.747 31.2045C118.747 43.3636 125.801 48.9773 135.859 48.9773C140.794 48.9773 144.496 47.8864 147.313 46.3636V38.7727C144.496 40.1591 141.26 41 137.163 41C133.135 41 129.596 39.6136 129.131 34.8864H149.362C149.408 34.3636 149.502 32.25 149.502 31.2727ZM129.037 27.4545C129.037 22.9091 131.901 21 134.485 21C137.023 21 139.723 22.9091 139.723 27.4545H129.037ZM102.753 12.7727C98.7019 12.7727 96.0944 14.6364 94.651 15.9318L94.1155 13.4318H85.0126V59.9773L95.3494 57.8409L95.3727 46.4318C96.8627 47.5 99.0744 48.9773 102.683 48.9773C110.086 48.9773 116.838 43.7045 116.838 30.8864C116.861 19.1591 110.017 12.7727 102.753 12.7727ZM100.285 40.6136C97.8638 40.6136 96.4204 39.75 95.4193 38.7045L95.3494 23.7045C96.4204 22.5455 97.9104 21.7045 100.285 21.7045C104.057 21.7045 106.664 25.8409 106.664 31.1136C106.687 36.5455 104.126 40.6136 100.285 40.6136ZM70.7877 48.2727H81.1711V13.4545H70.7877V48.2727Z" fill="#737373"/>
</g>
<defs>
<clipPath id="clip0_541_367">
<rect width="149" height="60" fill="white" transform="translate(0.5)"/>
</clipPath>
</defs>
</svg>
